<svg width="207" height="144" viewBox="0 0 207 144" fill="none" xmlns="http://www.w3.org/2000/svg">
<g filter="url(#filter0_d_91_352)">
<path d="M187.589 39.5938H165.16L158.927 24.8875C152.521 9.76763 137.232 0 119.974 0H72.3968C55.1417 0 39.8497 9.76763 33.4399 24.8875L27.2062 39.5938H4.78141C1.85562 39.5938 -0.290963 42.1886 0.420817 44.8647L2.66854 53.349C3.16679 55.2368 4.96497 56.5625 7.02913 56.5625H14.5478C9.51662 60.7092 6.27614 66.7367 6.27614 73.5312V90.5C6.27614 96.1987 8.58381 101.342 12.2701 105.323V124.438C12.2701 130.684 17.6384 135.75 24.258 135.75H36.2458C42.8654 135.75 48.2337 130.684 48.2337 124.438V113.125H144.137V124.438C144.137 130.684 149.505 135.75 156.125 135.75H168.112C174.732 135.75 180.1 130.684 180.1 124.438V105.323C183.787 101.346 186.094 96.2022 186.094 90.5V73.5312C186.094 66.7367 182.854 60.7092 177.826 56.5625H185.345C187.409 56.5625 189.207 55.2368 189.706 53.349L191.953 44.8647C192.661 42.1886 190.515 39.5938 187.589 39.5938ZM55.6999 33.2906C58.4309 26.8495 65.0429 22.625 72.3968 22.625H119.974C127.327 22.625 133.94 26.8495 136.671 33.2906L144.137 50.9062H48.2337L55.6999 33.2906ZM36.2458 90.4293C29.0531 90.4293 24.258 85.9184 24.258 79.1521C24.258 72.3859 29.0531 67.875 36.2458 67.875C43.4386 67.875 54.2276 78.0244 54.2276 84.7907C54.2276 91.557 43.4386 90.4293 36.2458 90.4293ZM156.125 90.4293C148.932 90.4293 138.143 91.557 138.143 84.7907C138.143 78.0244 148.932 67.875 156.125 67.875C163.317 67.875 168.112 72.3859 168.112 79.1521C168.112 85.9184 163.317 90.4293 156.125 90.4293Z" fill="#959595"/>
</g>
<defs>
<filter id="filter0_d_91_352" x="0.283569" y="0" width="205.806" height="143.75" filterUnits="userSpaceOnUse" color-interpolation-filters="sRGB">
<feFlood flood-opacity="0" result="BackgroundImageFix"/>
<feColorMatrix in="SourceAlpha" type="matrix" values="0 0 0 0 0 0 0 0 0 0 0 0 0 0 0 0 0 0 127 0" result="hardAlpha"/>
<feOffset dx="10" dy="4"/>
<feGaussianBlur stdDeviation="2"/>
<feComposite in2="hardAlpha" operator="out"/>
<feColorMatrix type="matrix" values="0 0 0 0 0 0 0 0 0 0 0 0 0 0 0 0 0 0 0.25 0"/>
<feBlend mode="normal" in2="BackgroundImageFix" result="effect1_dropShadow_91_352"/>
<feBlend mode="normal" in="SourceGraphic" in2="effect1_dropShadow_91_352" result="shape"/>
</filter>
</defs>
</svg>
