<svg width="53" height="40" viewBox="0 0 53 40" fill="none" xmlns="http://www.w3.org/2000/svg">
<path d="M51.9959 13.3781C52.3996 13.0633 53 13.3578 53 13.8555V34.625C53 37.3164 50.7744 39.5 48.0312 39.5H4.96875C2.22559 39.5 0 37.3164 0 34.625V13.8656C0 13.3578 0.590039 13.0734 1.0041 13.3883C3.32285 15.1555 6.39727 17.4 16.9559 24.9258C19.14 26.4898 22.8252 29.7805 26.5 29.7602C30.1955 29.7906 33.9531 26.4289 36.0545 24.9258C46.6131 17.4 49.6771 15.1453 51.9959 13.3781ZM26.5 26.5C28.9016 26.5406 32.359 23.5344 34.098 22.2953C47.8346 12.5148 48.8801 11.6617 52.0477 9.22422C52.648 8.76719 53 8.05625 53 7.30469V5.375C53 2.68359 50.7744 0.5 48.0312 0.5H4.96875C2.22559 0.5 0 2.68359 0 5.375V7.30469C0 8.05625 0.351953 8.75703 0.952344 9.22422C4.11992 11.6516 5.16543 12.5148 18.902 22.2953C20.641 23.5344 24.0984 26.5406 26.5 26.5Z" fill="#BF457D" fill-opacity="0.85"/>
</svg>
