<svg width="28" height="19" viewBox="0 0 28 19" fill="none" xmlns="http://www.w3.org/2000/svg">
<path d="M27.0838 8.7776C24.5327 3.54221 19.4822 0 13.6992 0C7.91626 0 2.86435 3.54469 0.314634 8.7781C0.20702 9.002 0.150951 9.24937 0.150951 9.50025C0.150951 9.75113 0.20702 9.9985 0.314634 10.2224C2.86576 15.4578 7.91626 19 13.6992 19C19.4822 19 24.5341 15.4553 27.0838 10.2219C27.1914 9.998 27.2475 9.75063 27.2475 9.49975C27.2475 9.24887 27.1914 9.0015 27.0838 8.7776ZM13.6992 16.625C12.3594 16.625 11.0497 16.2071 9.9357 15.4242C8.8217 14.6413 7.95344 13.5285 7.44072 12.2266C6.928 10.9247 6.79385 9.4921 7.05523 8.10998C7.31661 6.72787 7.96179 5.45831 8.90917 4.46186C9.85655 3.46541 11.0636 2.78682 12.3776 2.5119C13.6917 2.23699 15.0538 2.37808 16.2916 2.91736C17.5294 3.45663 18.5874 4.36986 19.3317 5.54156C20.0761 6.71326 20.4734 8.09081 20.4734 9.5C20.4738 10.4358 20.2989 11.3625 19.9586 12.2272C19.6183 13.0918 19.1193 13.8774 18.4902 14.5392C17.8611 15.2009 17.1142 15.7257 16.2921 16.0836C15.47 16.4415 14.5889 16.6255 13.6992 16.625ZM13.6992 4.75C13.2961 4.75593 12.8956 4.819 12.5086 4.93753C12.8276 5.39356 12.9807 5.95476 12.9401 6.51935C12.8995 7.08393 12.6679 7.61452 12.2872 8.01488C11.9066 8.41525 11.4021 8.65887 10.8653 8.70158C10.3286 8.7443 9.79499 8.58326 9.36141 8.24768C9.11451 9.20441 9.15908 10.2185 9.48884 11.1472C9.8186 12.0758 10.4169 12.8724 11.1997 13.4247C11.9824 13.9769 12.91 14.2572 13.8521 14.2259C14.7941 14.1946 15.7031 13.8533 16.4512 13.2502C17.1992 12.647 17.7485 11.8124 18.0219 10.8636C18.2953 9.91491 18.2789 8.89991 17.9751 7.96148C17.6712 7.02306 17.0953 6.20847 16.3283 5.63237C15.5612 5.05627 14.6417 4.74767 13.6992 4.75Z" fill="#BF457D" fill-opacity="0.84"/>
</svg>
