<svg width="65" height="65" viewBox="0 0 65 65" fill="none" xmlns="http://www.w3.org/2000/svg">
<path d="M56.9994 1H6.83992C5.02586 1 3.2861 1.72063 2.00337 3.00337C0.720633 4.2861 0 6.02586 0 7.83992L0 57.9994C0 59.8134 0.720633 61.5532 2.00337 62.8359C3.2861 64.1187 5.02586 64.8393 6.83992 64.8393H26.3978V43.1354H17.4204V32.9196H26.3978V25.1335C26.3978 16.2773 31.6703 11.3853 39.7457 11.3853C43.6131 11.3853 47.6572 12.075 47.6572 12.075V20.7674H43.2012C38.8109 20.7674 37.4415 23.4919 37.4415 26.2863V32.9196H47.2425L45.675 43.1354H37.4415V64.8393H56.9994C58.8134 64.8393 60.5532 64.1187 61.8359 62.8359C63.1187 61.5532 63.8393 59.8134 63.8393 57.9994V7.83992C63.8393 6.02586 63.1187 4.2861 61.8359 3.00337C60.5532 1.72063 58.8134 1 56.9994 1Z" fill="#BF457D" fill-opacity="0.83"/>
</svg>
