<svg width="65" height="65" viewBox="0 0 65 65" fill="none" xmlns="http://www.w3.org/2000/svg">
<path d="M32.5127 17.9004C24.4385 17.9004 17.9258 24.4131 17.9258 32.4873C17.9258 40.5615 24.4385 47.0742 32.5127 47.0742C40.5869 47.0742 47.0996 40.5615 47.0996 32.4873C47.0996 24.4131 40.5869 17.9004 32.5127 17.9004ZM32.5127 41.9707C27.2949 41.9707 23.0293 37.7178 23.0293 32.4873C23.0293 27.2568 27.2822 23.0039 32.5127 23.0039C37.7432 23.0039 41.9961 27.2568 41.9961 32.4873C41.9961 37.7178 37.7305 41.9707 32.5127 41.9707ZM51.0986 17.3037C51.0986 19.1953 49.5752 20.7061 47.6963 20.7061C45.8047 20.7061 44.2939 19.1826 44.2939 17.3037C44.2939 15.4248 45.8174 13.9014 47.6963 13.9014C49.5752 13.9014 51.0986 15.4248 51.0986 17.3037ZM60.7598 20.7568C60.5439 16.1992 59.5029 12.1621 56.1641 8.83594C52.8379 5.50977 48.8008 4.46875 44.2432 4.24023C39.5459 3.97363 25.4668 3.97363 20.7695 4.24023C16.2246 4.45605 12.1875 5.49707 8.84863 8.82324C5.50977 12.1494 4.48145 16.1865 4.25293 20.7441C3.98633 25.4414 3.98633 39.5205 4.25293 44.2178C4.46875 48.7754 5.50977 52.8125 8.84863 56.1387C12.1875 59.4648 16.2119 60.5059 20.7695 60.7344C25.4668 61.001 39.5459 61.001 44.2432 60.7344C48.8008 60.5186 52.8379 59.4775 56.1641 56.1387C59.4902 52.8125 60.5313 48.7754 60.7598 44.2178C61.0264 39.5205 61.0264 25.4541 60.7598 20.7568ZM54.6914 49.2578C53.7012 51.7461 51.7842 53.6631 49.2832 54.666C45.5381 56.1514 36.6514 55.8086 32.5127 55.8086C28.374 55.8086 19.4746 56.1387 15.7422 54.666C13.2539 53.6758 11.3369 51.7588 10.334 49.2578C8.84863 45.5127 9.19141 36.626 9.19141 32.4873C9.19141 28.3486 8.86133 19.4492 10.334 15.7168C11.3242 13.2285 13.2412 11.3115 15.7422 10.3086C19.4873 8.82324 28.374 9.16602 32.5127 9.16602C36.6514 9.16602 45.5508 8.83594 49.2832 10.3086C51.7715 11.2988 53.6885 13.2158 54.6914 15.7168C56.1768 19.4619 55.834 28.3486 55.834 32.4873C55.834 36.626 56.1768 45.5254 54.6914 49.2578Z" fill="#BF457D" fill-opacity="0.83"/>
</svg>
