<svg width="65" height="65" viewBox="0 0 65 65" fill="none" xmlns="http://www.w3.org/2000/svg">
<path d="M56.875 4.0625H8.1123C5.87793 4.0625 4.0625 5.90332 4.0625 8.16309V56.8369C4.0625 59.0967 5.87793 60.9375 8.1123 60.9375H56.875C59.1094 60.9375 60.9375 59.0967 60.9375 56.8369V8.16309C60.9375 5.90332 59.1094 4.0625 56.875 4.0625ZM21.252 52.8125H12.8223V25.6699H21.2646V52.8125H21.252ZM17.0371 21.9629C14.333 21.9629 12.1494 19.7666 12.1494 17.0752C12.1494 14.3838 14.333 12.1875 17.0371 12.1875C19.7285 12.1875 21.9248 14.3838 21.9248 17.0752C21.9248 19.7793 19.7412 21.9629 17.0371 21.9629ZM52.8506 52.8125H44.4209V39.6094C44.4209 36.4609 44.3574 32.4111 40.041 32.4111C35.6484 32.4111 34.9756 35.8389 34.9756 39.3809V52.8125H26.5459V25.6699H34.6328V29.377H34.7471C35.877 27.2441 38.6318 24.9971 42.7324 24.9971C51.2637 24.9971 52.8506 30.6211 52.8506 37.9336V52.8125Z" fill="#BF457D" fill-opacity="0.83"/>
</svg>
