<svg width="53" height="53" viewBox="0 0 53 53" fill="none" xmlns="http://www.w3.org/2000/svg">
<path d="M46.7812 0.6875H6.21875C4.75177 0.6875 3.34488 1.27026 2.30757 2.30757C1.27025 3.34488 0.6875 4.75177 0.6875 6.21875L0.6875 46.7812C0.6875 48.2482 1.27025 49.6551 2.30757 50.6924C3.34488 51.7297 4.75177 52.3125 6.21875 52.3125H46.7812C48.2482 52.3125 49.6551 51.7297 50.6924 50.6924C51.7297 49.6551 52.3125 48.2482 52.3125 46.7812V6.21875C52.3125 4.75177 51.7297 3.34488 50.6924 2.30757C49.6551 1.27026 48.2482 0.6875 46.7812 0.6875ZM44.8926 36.1071L43.164 43.5973C43.0762 43.9781 42.862 44.318 42.5562 44.5613C42.2505 44.8047 41.8713 44.9373 41.4805 44.9375C23.043 44.9375 8.0625 29.9904 8.0625 11.5195C8.07622 11.1324 8.21382 10.7599 8.45508 10.4568C8.69633 10.1538 9.02849 9.93613 9.40268 9.83596L16.8929 8.10744C17.0207 8.08042 17.1507 8.06538 17.2812 8.0625C17.6155 8.07937 17.9392 8.18541 18.2186 8.36961C18.498 8.5538 18.7231 8.80944 18.8703 9.10998L22.3274 17.1764C22.412 17.3939 22.4592 17.6242 22.4668 17.8574C22.4387 18.3691 22.2111 18.8494 21.833 19.1953L17.4668 22.7676C20.1123 28.3748 24.6252 32.8877 30.2324 35.5332L33.8047 31.167C34.1506 30.7889 34.6309 30.5613 35.1426 30.5332C35.3759 30.5407 35.6062 30.5879 35.8236 30.6726L43.89 34.1297C44.1907 34.2767 44.4465 34.5017 44.6307 34.7812C44.8149 35.0607 44.9209 35.3844 44.9375 35.7188C44.9352 35.8494 44.9201 35.9794 44.8926 36.1071Z" fill="#BF457D" fill-opacity="0.85"/>
</svg>
