<svg width="59" height="59" viewBox="0 0 59 59" fill="none" xmlns="http://www.w3.org/2000/svg">
<rect width="59" height="59" fill="#EFEDF1"/>
<path d="M49.7812 3.6875H9.21875C7.75177 3.6875 6.34488 4.27026 5.30757 5.30757C4.27025 6.34488 3.6875 7.75177 3.6875 9.21875L3.6875 49.7812C3.6875 51.2482 4.27025 52.6551 5.30757 53.6924C6.34488 54.7297 7.75177 55.3125 9.21875 55.3125H49.7812C51.2482 55.3125 52.6551 54.7297 53.6924 53.6924C54.7297 52.6551 55.3125 51.2482 55.3125 49.7812V9.21875C55.3125 7.75177 54.7297 6.34488 53.6924 5.30757C52.6551 4.27026 51.2482 3.6875 49.7812 3.6875ZM47.8926 39.1071L46.164 46.5973C46.0762 46.9781 45.862 47.318 45.5562 47.5613C45.2505 47.8047 44.8713 47.9373 44.4805 47.9375C26.043 47.9375 11.0625 32.9904 11.0625 14.5195C11.0762 14.1324 11.2138 13.7599 11.4551 13.4568C11.6963 13.1538 12.0285 12.9361 12.4027 12.836L19.8929 11.1074C20.0207 11.0804 20.1507 11.0654 20.2812 11.0625C20.6155 11.0794 20.9392 11.1854 21.2186 11.3696C21.498 11.5538 21.7231 11.8094 21.8703 12.11L25.3274 20.1764C25.412 20.3939 25.4592 20.6242 25.4668 20.8574C25.4387 21.3691 25.2111 21.8494 24.833 22.1953L20.4668 25.7676C23.1123 31.3748 27.6252 35.8877 33.2324 38.5332L36.8047 34.167C37.1506 33.7889 37.6309 33.5613 38.1426 33.5332C38.3759 33.5407 38.6062 33.5879 38.8236 33.6726L46.89 37.1297C47.1907 37.2767 47.4465 37.5017 47.6307 37.7812C47.8149 38.0607 47.9209 38.3844 47.9375 38.7188C47.9352 38.8493 47.9201 38.9794 47.8926 39.1071Z" fill="#BF457D" fill-opacity="0.85"/>
</svg>
